<mxfile host="65bd71144e">
    <diagram id="DiVC0XS4uHkmSNa-AXyE" name="PÃ¡gina-1">
        <mxGraphModel dx="1023" dy="578" grid="0" gridSize="10" guides="1" tooltips="1" connect="1" arrows="1" fold="1" page="1" pageScale="1" pageWidth="1169" pageHeight="827" background="#ffffff" math="0" shadow="0">
            <root>
                <mxCell id="0"/>
                <mxCell id="1" parent="0"/>
                <mxCell id="11" style="edgeStyle=none;html=1;fontColor=#000000;labelBackgroundColor=#000000;strokeColor=#000000;startArrow=blockThin;startFill=1;" edge="1" parent="1" source="2" target="7">
                    <mxGeometry relative="1" as="geometry"/>
                </mxCell>
                <mxCell id="2" value="" style="rounded=1;whiteSpace=wrap;html=1;fillColor=#fad7ac;strokeColor=#b46504;" vertex="1" parent="1">
                    <mxGeometry x="621" y="207" width="129" height="54" as="geometry"/>
                </mxCell>
                <mxCell id="13" style="edgeStyle=none;html=1;entryX=0;entryY=0.5;entryDx=0;entryDy=0;labelBackgroundColor=#000000;fontColor=#000000;strokeColor=#000000;startArrow=blockThin;startFill=1;exitX=1;exitY=0;exitDx=0;exitDy=0;" edge="1" parent="1" source="5" target="2">
                    <mxGeometry relative="1" as="geometry"/>
                </mxCell>
                <mxCell id="14" style="edgeStyle=none;html=1;labelBackgroundColor=#000000;fontColor=#000000;strokeColor=#000000;" edge="1" parent="1" source="5" target="6">
                    <mxGeometry relative="1" as="geometry"/>
                </mxCell>
                <mxCell id="5" value="" style="rounded=1;whiteSpace=wrap;html=1;fillColor=#fad7ac;strokeColor=#b46504;" vertex="1" parent="1">
                    <mxGeometry x="431" y="267" width="148" height="60" as="geometry"/>
                </mxCell>
                <mxCell id="16" style="edgeStyle=none;html=1;labelBackgroundColor=#000000;fontColor=#000000;strokeColor=#000000;" edge="1" parent="1" source="6" target="10">
                    <mxGeometry relative="1" as="geometry"/>
                </mxCell>
                <mxCell id="6" value="" style="rounded=1;whiteSpace=wrap;html=1;fillColor=#fad7ac;strokeColor=#b46504;" vertex="1" parent="1">
                    <mxGeometry x="441" y="136" width="120" height="60" as="geometry"/>
                </mxCell>
                <mxCell id="7" value="" style="image;html=1;image=img/lib/clip_art/computers/Database_128x128.png" vertex="1" parent="1">
                    <mxGeometry x="800" y="194" width="80" height="80" as="geometry"/>
                </mxCell>
                <mxCell id="8" value="" style="image;html=1;image=img/lib/clip_art/people/Suit_Man_128x128.png" vertex="1" parent="1">
                    <mxGeometry x="171" y="196" width="79" height="80" as="geometry"/>
                </mxCell>
                <mxCell id="10" value="" style="image;html=1;image=img/lib/clip_art/computers/Monitor_128x128.png;fontColor=#000000;portConstraintRotation=0;flipH=1;" vertex="1" parent="1">
                    <mxGeometry x="238" y="198" width="100" height="88" as="geometry"/>
                </mxCell>
                <mxCell id="15" style="edgeStyle=none;html=1;entryX=0;entryY=0.5;entryDx=0;entryDy=0;labelBackgroundColor=#000000;fontColor=#000000;strokeColor=#000000;" edge="1" parent="1" source="9" target="5">
                    <mxGeometry relative="1" as="geometry"/>
                </mxCell>
                <mxCell id="9" value="index.html" style="text;strokeColor=none;fillColor=none;align=left;verticalAlign=middle;spacingLeft=4;spacingRight=4;overflow=hidden;points=[[0,0.5],[1,0.5]];portConstraint=eastwest;rotatable=0;fontColor=#FFFFFF;" vertex="1" parent="1">
                    <mxGeometry x="252" y="216" width="80" height="30" as="geometry"/>
                </mxCell>
                <mxCell id="17" value="Archivos &#10;carpeta vista" style="text;strokeColor=none;fillColor=none;align=left;verticalAlign=middle;spacingLeft=4;spacingRight=4;overflow=hidden;points=[[0,0.5],[1,0.5]];portConstraint=eastwest;rotatable=0;fontColor=#000000;" vertex="1" parent="1">
                    <mxGeometry x="461" y="149" width="80" height="30" as="geometry"/>
                </mxCell>
                <mxCell id="18" value="app.php&#10;ControladorActores.php" style="text;strokeColor=none;fillColor=none;align=left;verticalAlign=middle;spacingLeft=4;spacingRight=4;overflow=hidden;points=[[0,0.5],[1,0.5]];portConstraint=eastwest;rotatable=0;fontColor=#000000;" vertex="1" parent="1">
                    <mxGeometry x="436" y="282" width="138" height="30" as="geometry"/>
                </mxCell>
                <mxCell id="23" value="thronesDB.php&#10;ConexionActores.php" style="text;strokeColor=none;fillColor=none;align=left;verticalAlign=middle;spacingLeft=4;spacingRight=4;overflow=hidden;points=[[0,0.5],[1,0.5]];portConstraint=eastwest;rotatable=0;fontColor=#000000;" vertex="1" parent="1">
                    <mxGeometry x="621" y="221" width="138" height="30" as="geometry"/>
                </mxCell>
            </root>
        </mxGraphModel>
    </diagram>
</mxfile>